HIERARCHY
ROOT Hips
{
	OFFSET -0.283425 86.549622 1.819384
	CHANNELS 6 Xposition Yposition Zposition Zrotation Yrotation Xrotation 
	JOINT Spine
	{
		OFFSET 0.000000 8.814246 -2.080107
		CHANNELS 3 Zrotation Yrotation Xrotation
		JOINT Spine1
		{
			OFFSET -0.000000 8.844141 0.000000
			CHANNELS 3 Zrotation Yrotation Xrotation
			JOINT Spine2
			{
				OFFSET -0.000000 11.682268 0.000000
				CHANNELS 3 Zrotation Yrotation Xrotation
				JOINT Spine3
				{
					OFFSET 0.000000 11.746700 -0.000000
					CHANNELS 3 Zrotation Yrotation Xrotation
					JOINT Neck
					{
						OFFSET -0.000000 17.658264 0.000000
						CHANNELS 3 Zrotation Yrotation Xrotation
						JOINT Neck1
						{
							OFFSET 0.000000 5.101515 0.000000
							CHANNELS 3 Zrotation Yrotation Xrotation
							JOINT Head
							{
								OFFSET 0.000000 5.101515 0.000000
								CHANNELS 3 Zrotation Yrotation Xrotation
								JOINT HeadEnd
								{
									OFFSET 0.000000 11.655085 0.000000
									CHANNELS 3 Zrotation Yrotation Xrotation
									End Site
									{
										OFFSET 0.000000 0.000000 0.000000
									}
								}
							}
						}
					}
					JOINT RightShoulder
					{
						OFFSET -2.625389 11.175210 0.000000
						CHANNELS 3 Zrotation Yrotation Xrotation
						JOINT RightArm
						{
							OFFSET -0.000000 10.434715 -0.000000
							CHANNELS 3 Zrotation Yrotation Xrotation
							JOINT RightForeArm
							{
								OFFSET -0.000000 29.628420 -0.000000
								CHANNELS 3 Zrotation Yrotation Xrotation
								JOINT RightHand
								{
									OFFSET 0.000000 22.857611 0.000000
									CHANNELS 3 Zrotation Yrotation Xrotation
									JOINT RightHandThumb1
									{
										OFFSET -2.867323 3.959563 2.944291
										CHANNELS 3 Zrotation Yrotation Xrotation
										JOINT RightHandThumb2
										{
											OFFSET -0.000000 3.350399 -0.000000
											CHANNELS 3 Zrotation Yrotation Xrotation
											JOINT RightHandThumb3
											{
												OFFSET -0.000000 3.756509 -0.000000
												CHANNELS 3 Zrotation Yrotation Xrotation
												JOINT RightHandThumb4
												{
													OFFSET 0.000000 3.147345 -0.000000
													CHANNELS 3 Zrotation Yrotation Xrotation
													End Site
													{
														OFFSET 0.000000 0.000000 0.000000
													}
												}
											}
										}
									}
									JOINT RightHandIndex1
									{
										OFFSET -0.086752 10.030893 2.345280
										CHANNELS 3 Zrotation Yrotation Xrotation
										JOINT RightHandIndex2
										{
											OFFSET -0.000000 4.061090 0.000000
											CHANNELS 3 Zrotation Yrotation Xrotation
											JOINT RightHandIndex3
											{
												OFFSET -0.000000 3.248873 -0.000000
												CHANNELS 3 Zrotation Yrotation Xrotation
												JOINT RightHandIndex4
												{
													OFFSET 0.000000 2.639709 0.000000
													CHANNELS 3 Zrotation Yrotation Xrotation
													End Site
													{
														OFFSET 0.000000 0.000000 0.000000
													}
												}
											}
										}
									}
									JOINT RightHandMiddle1
									{
										OFFSET 0.104102 9.502952 0.006768
										CHANNELS 3 Zrotation Yrotation Xrotation
										JOINT RightHandMiddle2
										{
											OFFSET -0.000000 4.568727 0.000000
											CHANNELS 3 Zrotation Yrotation Xrotation
											JOINT RightHandMiddle3
											{
												OFFSET 0.000000 3.654981 0.000000
												CHANNELS 3 Zrotation Yrotation Xrotation
												JOINT RightHandMiddle4
												{
													OFFSET 0.000000 2.741236 -0.000000
													CHANNELS 3 Zrotation Yrotation Xrotation
													End Site
													{
														OFFSET 0.000000 0.000000 0.000000
													}
												}
											}
										}
									}
									JOINT RightHandRing1
									{
										OFFSET 0.086752 8.921708 -2.267442
										CHANNELS 3 Zrotation Yrotation Xrotation
										JOINT RightHandRing2
										{
											OFFSET 0.000000 4.061090 0.000000
											CHANNELS 3 Zrotation Yrotation Xrotation
											JOINT RightHandRing3
											{
												OFFSET 0.000000 3.654981 0.000000
												CHANNELS 3 Zrotation Yrotation Xrotation
												JOINT RightHandRing4
												{
													OFFSET -0.000000 2.741236 -0.000000
													CHANNELS 3 Zrotation Yrotation Xrotation
													End Site
													{
														OFFSET 0.000000 0.000000 0.000000
													}
												}
											}
										}
									}
									JOINT RightHandPinky1
									{
										OFFSET -0.173504 7.976997 -4.467199
										CHANNELS 3 Zrotation Yrotation Xrotation
										JOINT RightHandPinky2
										{
											OFFSET -0.000000 3.350399 -0.000000
											CHANNELS 3 Zrotation Yrotation Xrotation
											JOINT RightHandPinky3
											{
												OFFSET 0.000000 2.842763 -0.000000
												CHANNELS 3 Zrotation Yrotation Xrotation
												JOINT RightHandPinky4
												{
													OFFSET 0.000000 2.639709 0.000000
													CHANNELS 3 Zrotation Yrotation Xrotation
													End Site
													{
														OFFSET 0.000000 0.000000 0.000000
													}
												}
											}
										}
									}
									JOINT RightForeArmEnd
									{
										OFFSET 0.000000 0.000000 0.000000
										CHANNELS 3 Zrotation Yrotation Xrotation
										End Site
										{
											OFFSET 0.000000 0.000000 0.000000
										}
									}
								}
								JOINT RightArmEnd
								{
									OFFSET 0.000000 0.000000 0.000000
									CHANNELS 3 Zrotation Yrotation Xrotation
									End Site
									{
										OFFSET 0.000000 0.000000 0.000000
									}
								}
							}
						}
					}
					JOINT LeftShoulder
					{
						OFFSET 2.625389 11.175210 -0.000000
						CHANNELS 3 Zrotation Yrotation Xrotation
						JOINT LeftArm
						{
							OFFSET -0.000000 10.813635 -0.000000
							CHANNELS 3 Zrotation Yrotation Xrotation
							JOINT LeftForeArm
							{
								OFFSET -0.000000 28.724781 0.000000
								CHANNELS 3 Zrotation Yrotation Xrotation
								JOINT LeftHand
								{
									OFFSET 0.644384 25.716167 -0.328871
									CHANNELS 3 Zrotation Yrotation Xrotation
									JOINT LeftHandThumb1
									{
										OFFSET 2.867323 3.959563 2.944291
										CHANNELS 3 Zrotation Yrotation Xrotation
										JOINT LeftHandThumb2
										{
											OFFSET 0.000000 3.350399 -0.000000
											CHANNELS 3 Zrotation Yrotation Xrotation
											JOINT LeftHandThumb3
											{
												OFFSET 0.000000 3.756509 0.000000
												CHANNELS 3 Zrotation Yrotation Xrotation
												JOINT LeftHandThumb4
												{
													OFFSET 0.000000 3.100000 -0.000000
													CHANNELS 3 Zrotation Yrotation Xrotation
													End Site
													{
														OFFSET 0.000000 0.000000 0.000000
													}
												}
											}
										}
									}
									JOINT LeftHandIndex1
									{
										OFFSET 0.086752 10.030893 2.345280
										CHANNELS 3 Zrotation Yrotation Xrotation
										JOINT LeftHandIndex2
										{
											OFFSET 0.000000 4.061090 -0.000000
											CHANNELS 3 Zrotation Yrotation Xrotation
											JOINT LeftHandIndex3
											{
												OFFSET -0.000000 3.248873 0.000000
												CHANNELS 3 Zrotation Yrotation Xrotation
												JOINT LeftHandIndex4
												{
													OFFSET 0.000000 2.639709 -0.000000
													CHANNELS 3 Zrotation Yrotation Xrotation
													End Site
													{
														OFFSET 0.000000 0.000000 0.000000
													}
												}
											}
										}
									}
									JOINT LeftHandMiddle1
									{
										OFFSET -0.104102 9.502952 0.006768
										CHANNELS 3 Zrotation Yrotation Xrotation
										JOINT LeftHandMiddle2
										{
											OFFSET 0.000000 4.568727 -0.000000
											CHANNELS 3 Zrotation Yrotation Xrotation
											JOINT LeftHandMiddle3
											{
												OFFSET -0.000000 3.654981 0.000000
												CHANNELS 3 Zrotation Yrotation Xrotation
												JOINT LeftHandMiddle4
												{
													OFFSET -0.000000 2.741236 -0.000000
													CHANNELS 3 Zrotation Yrotation Xrotation
													End Site
													{
														OFFSET 0.000000 0.000000 0.000000
													}
												}
											}
										}
									}
									JOINT LeftHandRing1
									{
										OFFSET -0.086752 8.921708 -2.267442
										CHANNELS 3 Zrotation Yrotation Xrotation
										JOINT LeftHandRing2
										{
											OFFSET 0.000000 4.061090 -0.000000
											CHANNELS 3 Zrotation Yrotation Xrotation
											JOINT LeftHandRing3
											{
												OFFSET -0.000000 3.654981 0.000000
												CHANNELS 3 Zrotation Yrotation Xrotation
												JOINT LeftHandRing4
												{
													OFFSET 0.000000 2.741236 0.000000
													CHANNELS 3 Zrotation Yrotation Xrotation
													End Site
													{
														OFFSET 0.000000 0.000000 0.000000
													}
												}
											}
										}
									}
									JOINT LeftHandPinky1
									{
										OFFSET 0.173504 7.976997 -4.467199
										CHANNELS 3 Zrotation Yrotation Xrotation
										JOINT LeftHandPinky2
										{
											OFFSET -0.000000 3.350399 -0.000000
											CHANNELS 3 Zrotation Yrotation Xrotation
											JOINT LeftHandPinky3
											{
												OFFSET -0.000000 2.842763 0.000000
												CHANNELS 3 Zrotation Yrotation Xrotation
												JOINT LeftHandPinky4
												{
													OFFSET -0.000000 2.639709 0.000000
													CHANNELS 3 Zrotation Yrotation Xrotation
													End Site
													{
														OFFSET 0.000000 0.000000 0.000000
													}
												}
											}
										}
									}
									JOINT LeftForeArmEnd
									{
										OFFSET 0.000000 0.000000 0.000000
										CHANNELS 3 Zrotation Yrotation Xrotation
										End Site
										{
											OFFSET 0.000000 0.000000 0.000000
										}
									}
								}
								JOINT LeftArmEnd
								{
									OFFSET 0.000000 0.000000 0.000000
									CHANNELS 3 Zrotation Yrotation Xrotation
									End Site
									{
										OFFSET 0.000000 0.000000 0.000000
									}
								}
							}
						}
					}
				}
			}
		}
	}
	JOINT RightUpLeg
	{
		OFFSET -11.289943 -0.000000 -0.000000
		CHANNELS 3 Zrotation Yrotation Xrotation
		JOINT RightLeg
		{
			OFFSET 0.000000 -38.200325 -0.000000
			CHANNELS 3 Zrotation Yrotation Xrotation
			JOINT RightFoot
			{
				OFFSET -0.000000 -39.900856 -0.000000
				CHANNELS 3 Zrotation Yrotation Xrotation
				JOINT RightToeBase
				{
					OFFSET -0.000000 -0.000000 15.261641
					CHANNELS 3 Zrotation Yrotation Xrotation
					JOINT RightToeBaseEnd
					{
						OFFSET -0.000000 0.000000 7.370709
						CHANNELS 3 Zrotation Yrotation Xrotation
						End Site
						{
							OFFSET 0.000000 0.000000 0.000000
						}
					}
				}
				JOINT RightLegEnd
				{
					OFFSET 0.000000 0.000000 0.000000
					CHANNELS 3 Zrotation Yrotation Xrotation
					End Site
					{
						OFFSET 0.000000 0.000000 0.000000
					}
				}
			}
			JOINT RightUpLegEnd
			{
				OFFSET 0.000000 0.000000 0.000000
				CHANNELS 3 Zrotation Yrotation Xrotation
				End Site
				{
					OFFSET 0.000000 0.000000 0.000000
				}
			}
		}
	}
	JOINT LeftUpLeg
	{
		OFFSET 11.315661 0.000000 0.000000
		CHANNELS 3 Zrotation Yrotation Xrotation
		JOINT LeftLeg
		{
			OFFSET 0.000000 -38.200325 0.000000
			CHANNELS 3 Zrotation Yrotation Xrotation
			JOINT LeftFoot
			{
				OFFSET 0.000000 -39.900856 -0.000000
				CHANNELS 3 Zrotation Yrotation Xrotation
				JOINT LeftToeBase
				{
					OFFSET 0.000000 0.000000 15.261641
					CHANNELS 3 Zrotation Yrotation Xrotation
					JOINT LeftToeBaseEnd
					{
						OFFSET -0.000000 0.000000 7.539996
						CHANNELS 3 Zrotation Yrotation Xrotation
						End Site
						{
							OFFSET 0.000000 0.000000 0.000000
						}
					}
				}
				JOINT LeftLegEnd
				{
					OFFSET 0.000000 0.000000 0.000000
					CHANNELS 3 Zrotation Yrotation Xrotation
					End Site
					{
						OFFSET 0.000000 0.000000 0.000000
					}
				}
			}
			JOINT LeftUpLegEnd
			{
				OFFSET 0.000000 0.000000 0.000000
				CHANNELS 3 Zrotation Yrotation Xrotation
				End Site
				{
					OFFSET 0.000000 0.000000 0.000000
				}
			}
		}
	}
}
MOTION
Frames: 4
Frame Time: 0.016667
-0.283425 86.549622 1.819384 1.164840 -0.124056 6.078281 7.403627 -2.498810 14.948251 -19.430544 -1.423140 -40.133942 11.037302 -7.291691 26.568457 -5.457827 0.003460 -6.006047 8.580623 0.164951 5.705921 -2.810290 0.880533 -10.076479 1.343302 3.953085 -22.265030 0.000000 0.000000 0.000000 97.219398 -0.957073 7.540580 73.739761 -80.596504 -21.452291 0.463712 -0.121270 31.964958 9.365609 -15.745981 -18.558598 15.136322 -2.071816 37.965191 0.000000 0.000000 -36.720001 0.000000 0.000000 -25.499998 0.000000 0.000000 0.000000 37.121433 0.000000 -9.782468 25.985003 0.000000 0.000000 25.985003 0.000000 0.000000 0.000000 0.000000 0.000000 37.326504 0.000000 -10.135260 26.128553 0.000000 0.000000 26.128553 0.000000 0.000000 0.000000 0.000000 0.000000 39.268318 0.000000 -8.307761 27.487823 0.000000 0.000000 27.487823 0.000000 0.000000 0.000000 0.000000 0.000000 39.373573 0.000000 -7.674800 27.561497 0.000000 0.000000 27.561497 0.000000 0.000000 0.000000 0.000000 0.000000 0.000000 0.000000 0.000000 0.000000 0.000000 0.000000 -93.895256 0.448793 6.287584 -48.873474 68.242149 -3.877067 0.931042 4.968118 47.911594 -0.271645 15.286931 -19.553507 -15.436549 2.076864 37.844463 0.000000 0.000000 -37.439999 0.000000 0.000000 -25.999996 0.000000 0.000000 0.000000 -41.962914 0.000000 -19.467260 -29.374033 0.000000 0.000000 -29.374033 0.000000 0.000000 0.000000 0.000000 0.000000 -44.513226 0.000000 -17.618473 -31.159260 0.000000 0.000000 -31.159260 0.000000 0.000000 0.000000 0.000000 0.000000 -54.597824 0.000000 -8.733864 -38.218479 0.000000 0.000000 -38.218479 0.000000 0.000000 0.000000 0.000000 0.000000 -62.583195 0.000000 3.648719 -43.808235 0.000000 0.000000 -43.808235 0.000000 0.000000 0.000000 0.000000 0.000000 0.000000 0.000000 0.000000 0.000000 0.000000 0.000000 -11.632170 14.445279 -6.786336 -0.194420 -1.053916 10.452356 0.353460 5.962473 13.204624 0.558029 -0.363800 -32.785847 0.000000 0.000000 0.000000 0.000000 0.000000 0.000000 0.000000 0.000000 0.000000 11.089880 -16.987257 -9.687824 0.251679 1.021088 13.847127 -1.310844 -11.000989 14.649602 -0.323069 -0.060858 -30.027617 0.000000 0.000000 0.000000 0.000000 0.000000 0.000000 0.000000 0.000000 0.000000 
-1.057641 86.360023 1.947033 0.770271 0.540333 -4.015529 0.237150 -0.031886 5.790973 -3.739655 0.897539 -1.937220 3.839550 -3.607316 12.579698 -3.117414 -0.674517 -3.068713 8.932801 -1.162219 3.549910 -1.722799 0.021502 -9.425167 1.019626 2.487550 -19.919970 0.000000 0.000000 0.000000 95.413155 -1.091996 6.975621 50.177937 -72.027649 4.938653 0.419973 3.257674 36.169228 8.526045 -18.165585 -23.072155 14.420058 -1.999057 38.389011 -0.000035 0.000027 -35.115974 0.000040 0.000047 -24.237656 0.000014 -0.000011 -0.000049 35.800350 -0.056421 -8.229009 25.147718 -0.083582 0.362821 25.123791 -0.056912 0.241486 -0.000040 0.000009 -0.000031 35.385353 0.004070 -8.268505 25.195383 -0.026951 0.046155 25.232626 0.011817 0.046360 -0.000013 0.000037 -0.000000 39.043041 -0.057130 -5.309831 27.510960 0.012724 -0.040618 27.532070 -0.019303 -0.012419 -0.000011 0.000072 -0.000005 40.653248 -0.093270 -4.880376 28.867319 -0.008487 0.247806 28.527067 -0.059051 0.253383 0.000793 0.000000 0.000074 0.000000 0.000000 0.000000 0.000000 0.000000 0.000000 -94.562820 1.118743 5.261037 -38.404736 64.593597 7.995657 -0.101842 1.407536 46.133450 -0.272116 14.582680 -24.408588 -15.765522 1.934699 37.889011 -0.000014 0.000029 -38.536964 -0.000093 -0.000020 -26.928854 -0.003200 -0.000016 -0.000104 -44.762276 0.104226 -19.568754 -31.099049 -0.032301 -0.180711 -31.382347 -0.024372 -0.126618 0.000046 0.000892 0.000018 -46.157486 0.078919 -15.608863 -32.321316 -0.025377 0.008899 -32.101460 -0.000354 0.012805 -0.001850 -0.000078 -0.000166 -53.711678 -0.035244 -6.877030 -37.609444 0.036664 -0.114086 -37.572639 -0.004559 -0.063388 -0.000345 0.000004 0.000010 -57.369392 -0.168581 -0.066600 -40.363052 0.032492 -0.277469 -40.197803 -0.022913 -0.272835 -0.000550 0.000024 -0.000036 0.000000 0.000000 0.000000 0.000000 0.000000 0.000000 -6.090406 14.528348 0.749739 -0.310960 -0.911153 13.171012 2.813470 3.591253 17.321602 0.228594 0.738944 -29.811108 0.000000 0.000000 0.000000 0.000000 0.000000 0.000000 0.000000 0.000000 0.000000 6.329582 -11.279481 -1.714642 0.312106 0.989358 16.478247 -2.231164 -9.301987 18.524736 -0.650255 -0.408482 -30.568691 0.000000 0.000000 0.000000 0.000000 0.000000 0.000000 0.000000 0.000000 0.000000 
-1.750685 86.493362 1.847248 0.640466 0.758157 -4.136753 0.354898 -0.103217 5.799461 -3.358294 0.781841 -1.862289 3.364708 -3.516094 12.478368 -3.061064 -0.718099 -2.818506 9.769269 -1.404547 3.675242 -1.697600 -0.079975 -9.298135 1.028188 2.468056 -19.993967 0.000000 0.000000 0.000000 95.235405 -1.062833 7.228768 45.539490 -71.982407 9.341030 0.255923 3.642805 35.909946 9.060616 -17.282993 -23.269461 14.529150 -2.015924 38.339424 -0.000053 0.000052 -35.358143 0.000049 0.000031 -24.371885 -0.000001 -0.000010 -0.000057 36.399868 -0.082420 -7.791985 25.600771 -0.087923 0.379083 25.544024 -0.060077 0.250825 -0.000031 0.000004 -0.000013 36.074188 -0.006153 -7.848247 25.716288 -0.025901 0.051561 25.711256 0.011972 0.047655 -0.000004 0.000015 -0.000009 39.879448 -0.050013 -4.866485 28.060308 0.008438 -0.041975 28.045914 -0.020832 -0.007714 -0.000013 0.000129 0.000001 41.323528 -0.067556 -4.299516 29.401869 -0.011543 0.261324 29.042038 -0.060445 0.257359 0.000855 -0.000010 0.000060 0.000000 0.000000 0.000000 0.000000 0.000000 0.000000 -94.300407 1.108572 5.385146 -40.028618 63.836941 7.226064 -0.247954 1.159485 45.139324 -2.087494 13.900696 -26.034607 -15.991608 1.962619 37.764019 -0.000027 0.000033 -39.092415 -0.000101 -0.000010 -27.314262 -0.003108 -0.000024 -0.000221 -45.589001 0.081860 -19.284456 -31.530254 -0.050705 -0.245194 -31.805874 -0.044641 -0.179278 0.000052 0.000965 0.000028 -46.924305 0.068567 -15.442167 -32.741074 -0.031191 -0.017411 -32.552948 -0.004664 -0.006221 -0.001977 -0.000073 -0.000217 -54.207573 -0.026406 -6.876645 -37.965916 0.041255 -0.077745 -37.931625 0.001689 -0.041841 -0.000193 0.000019 0.000015 -57.713383 -0.151364 0.001681 -40.629383 0.053070 -0.181222 -40.508015 -0.000641 -0.224075 -0.000670 0.000018 -0.000046 0.000000 0.000000 0.000000 0.000000 0.000000 0.000000 -5.316340 14.233835 0.999977 -0.287076 -0.866806 13.220507 2.138619 2.823128 17.374853 0.226341 0.687761 -29.824986 0.000000 0.000000 0.000000 0.000000 0.000000 0.000000 0.000000 0.000000 0.000000 6.625502 -11.470184 -1.651619 0.312026 1.001115 16.642389 -2.438987 -8.828747 18.887255 -0.583753 -0.390098 -30.754278 0.000000 0.000000 0.000000 0.000000 0.000000 0.000000 0.000000 0.000000 0.000000 
-2.433056 86.580338 1.720667 0.455500 1.016991 -4.125447 0.538281 -0.186360 5.775118 -3.036768 0.691045 -1.658004 3.012315 -3.400780 12.175184 -3.101799 -0.725492 -2.583715 10.157241 -1.579476 3.773092 -1.753804 -0.258568 -9.205779 1.028293 2.466261 -20.051512 0.000000 0.000000 0.000000 95.047806 -1.002125 7.471038 41.382702 -72.070389 13.198910 0.150919 3.770114 36.069241 9.407574 -16.835424 -23.390991 14.661041 -2.031134 38.278336 -0.000062 0.000057 -35.644596 0.000051 0.000030 -24.551956 -0.000004 -0.000012 -0.000054 36.862984 -0.095349 -7.661978 25.929588 -0.095582 0.400398 25.852823 -0.066754 0.266773 -0.000034 0.000001 -0.000006 36.688091 -0.011501 -7.719544 26.116537 -0.027375 0.058880 26.079584 0.010890 0.050959 -0.000006 0.000003 -0.000011 40.741512 -0.048060 -4.679082 28.571522 0.008373 -0.045472 28.540997 -0.020790 -0.007465 -0.000009 0.000270 0.000005 42.150196 -0.053539 -3.956859 29.941229 -0.009243 0.260357 29.571394 -0.057965 0.253591 0.000912 -0.000010 0.000052 0.000000 0.000000 0.000000 0.000000 0.000000 0.000000 -94.082146 1.098195 5.407659 -42.070183 63.527573 6.095787 -0.352955 1.091157 44.186726 -3.178779 13.437204 -27.337336 -16.188387 1.986809 37.652016 -0.000032 0.000030 -39.576626 -0.000119 -0.000008 -27.652966 -0.002989 -0.000028 -0.000041 -46.187225 0.069759 -19.244921 -31.837463 -0.065351 -0.285136 -32.106197 -0.059172 -0.214171 0.000054 0.001105 0.000032 -47.481220 0.062151 -15.437448 -33.042526 -0.036330 -0.035700 -32.874653 -0.007915 -0.019430 -0.002146 -0.000073 -0.000259 -54.648979 -0.023089 -6.885980 -38.272900 0.047168 -0.052462 -38.242668 0.006765 -0.027056 -0.000136 0.000014 0.000015 -58.129379 -0.143168 0.100083 -40.900562 0.070134 -0.120700 -40.798138 0.014823 -0.186881 -0.000674 0.000014 -0.000049 0.000000 0.000000 0.000000 0.000000 0.000000 0.000000 -4.429694 13.785350 0.935167 -0.263843 -0.814624 13.318591 1.352948 2.088572 17.511002 0.249453 0.619678 -29.866035 0.000000 0.000000 0.000000 0.000000 0.000000 0.000000 0.000000 0.000000 0.000000 7.096527 -11.528880 -1.931277 0.318525 1.000997 17.111546 -2.705152 -8.473948 19.189999 -0.532025 -0.341880 -31.001869 0.000000 0.000000 0.000000 0.000000 0.000000 0.000000 0.000000 0.000000 0.000000 
